<svg xmlns="http://www.w3.org/2000/svg" width="680" height="448" viewBox="0 0 680 448" role="img" aria-label="SmolVLA during one control step. Camera images, the instruction and the joint readings go into a 16-layer vision-language model, which runs once. The 16-layer action expert then runs 10 refinement steps, from random noise to 50 planned movements, and reads the vision-language context at every step. The probe reads, and the edit writes, at one place: after layer 4 of the action expert, in the first refinement step, averaged over the 50 movement tokens. Four other measured places are marked in grey." font-family="'Helvetica Neue', Helvetica, Arial, sans-serif" text-rendering="geometricPrecision"><rect width="680" height="448" fill="#ffffff"/><defs><marker id="ah-ink" viewBox="0 0 10 10" refX="8.6" refY="5" markerWidth="8" markerHeight="8" markerUnits="userSpaceOnUse" orient="auto-start-reverse"><path d="M0.6,0.8 L9.4,5 L0.6,9.2 Z" fill="#1c1c1c"/></marker><marker id="ah-muted" viewBox="0 0 10 10" refX="8.6" refY="5" markerWidth="8" markerHeight="8" markerUnits="userSpaceOnUse" orient="auto-start-reverse"><path d="M0.6,0.8 L9.4,5 L0.6,9.2 Z" fill="#b9b9b9"/></marker><marker id="ah-blue" viewBox="0 0 10 10" refX="8.6" refY="5" markerWidth="8" markerHeight="8" markerUnits="userSpaceOnUse" orient="auto-start-reverse"><path d="M0.6,0.8 L9.4,5 L0.6,9.2 Z" fill="#2f6db3"/></marker><marker id="ah-orange" viewBox="0 0 10 10" refX="8.6" refY="5" markerWidth="8" markerHeight="8" markerUnits="userSpaceOnUse" orient="auto-start-reverse"><path d="M0.6,0.8 L9.4,5 L0.6,9.2 Z" fill="#d4582b"/></marker><marker id="ah-text2" viewBox="0 0 10 10" refX="8.6" refY="5" markerWidth="8" markerHeight="8" markerUnits="userSpaceOnUse" orient="auto-start-reverse"><path d="M0.6,0.8 L9.4,5 L0.6,9.2 Z" fill="#6a6a6a"/></marker><marker id="ah-out" viewBox="0 0 10 10" refX="8.6" refY="5" markerWidth="8" markerHeight="8" markerUnits="userSpaceOnUse" orient="auto-start-reverse"><path d="M0.6,0.8 L9.4,5 L0.6,9.2 Z" fill="#8f8f8f"/></marker></defs><text x="24.00" y="30.00" font-size="15" fill="#1c1c1c" text-anchor="start" font-weight="700" font-family="'Helvetica Neue', Helvetica, Arial, sans-serif">8</text><text x="41.50" y="30.00" font-size="15" fill="#1c1c1c" text-anchor="start" font-weight="700" font-family="'Helvetica Neue', Helvetica, Arial, sans-serif">Where the probe reads and the edit writes</text><text x="24.00" y="52.00" font-size="13" fill="#6a6a6a" text-anchor="start" font-family="'Helvetica Neue', Helvetica, Arial, sans-serif">SmolVLA during one control step. Rows are layers, columns are refinement steps.</text><rect x="132.00" y="307.00" width="54.00" height="12.00" rx="0" fill="#f4f4f4" stroke="none" stroke-width="1.0"/><rect x="132.00" y="294.00" width="54.00" height="12.00" rx="0" fill="#f4f4f4" stroke="none" stroke-width="1.0"/><rect x="132.00" y="281.00" width="54.00" height="12.00" rx="0" fill="#f4f4f4" stroke="none" stroke-width="1.0"/><rect x="132.00" y="268.00" width="54.00" height="12.00" rx="0" fill="#f4f4f4" stroke="none" stroke-width="1.0"/><rect x="132.00" y="255.00" width="54.00" height="12.00" rx="0" fill="#f4f4f4" stroke="none" stroke-width="1.0"/><rect x="132.00" y="242.00" width="54.00" height="12.00" rx="0" fill="#f4f4f4" stroke="none" stroke-width="1.0"/><rect x="132.00" y="229.00" width="54.00" height="12.00" rx="0" fill="#f4f4f4" stroke="none" stroke-width="1.0"/><rect x="132.00" y="216.00" width="54.00" height="12.00" rx="0" fill="#f4f4f4" stroke="none" stroke-width="1.0"/><rect x="132.00" y="203.00" width="54.00" height="12.00" rx="0" fill="#f4f4f4" stroke="none" stroke-width="1.0"/><rect x="132.00" y="190.00" width="54.00" height="12.00" rx="0" fill="#f4f4f4" stroke="none" stroke-width="1.0"/><rect x="132.00" y="177.00" width="54.00" height="12.00" rx="0" fill="#f4f4f4" stroke="none" stroke-width="1.0"/><rect x="132.00" y="164.00" width="54.00" height="12.00" rx="0" fill="#f4f4f4" stroke="none" stroke-width="1.0"/><rect x="132.00" y="151.00" width="54.00" height="12.00" rx="0" fill="#f4f4f4" stroke="none" stroke-width="1.0"/><rect x="132.00" y="138.00" width="54.00" height="12.00" rx="0" fill="#f4f4f4" stroke="none" stroke-width="1.0"/><rect x="132.00" y="125.00" width="54.00" height="12.00" rx="0" fill="#f4f4f4" stroke="none" stroke-width="1.0"/><rect x="132.00" y="112.00" width="54.00" height="12.00" rx="0" fill="#f4f4f4" stroke="none" stroke-width="1.0"/><text x="159.00" y="82.00" font-size="12.5" fill="#1c1c1c" text-anchor="middle" font-weight="700" font-family="'Helvetica Neue', Helvetica, Arial, sans-serif">Vision-language model</text><text x="159.00" y="97.00" font-size="11.5" fill="#6a6a6a" text-anchor="middle" font-family="'Helvetica Neue', Helvetica, Arial, sans-serif">16 layers, runs once</text><text x="112.00" y="317.00" font-size="12" fill="#1c1c1c" text-anchor="end" font-family="'Helvetica Neue', Helvetica, Arial, sans-serif">joint readings</text><line x1="116.00" y1="313.00" x2="128.00" y2="313.00" stroke="#b9b9b9" stroke-width="1.2" stroke-linecap="butt" marker-end="url(#ah-muted)"/><text x="112.00" y="291.00" font-size="12" fill="#1c1c1c" text-anchor="end" font-family="'Helvetica Neue', Helvetica, Arial, sans-serif">instruction</text><line x1="116.00" y1="287.00" x2="128.00" y2="287.00" stroke="#b9b9b9" stroke-width="1.2" stroke-linecap="butt" marker-end="url(#ah-muted)"/><text x="112.00" y="265.00" font-size="12" fill="#1c1c1c" text-anchor="end" font-family="'Helvetica Neue', Helvetica, Arial, sans-serif">camera images</text><line x1="116.00" y1="261.00" x2="128.00" y2="261.00" stroke="#b9b9b9" stroke-width="1.2" stroke-linecap="butt" marker-end="url(#ah-muted)"/><rect x="290.00" y="307.00" width="22.00" height="12.00" rx="0" fill="#f4f4f4" stroke="none" stroke-width="1.0"/><rect x="290.00" y="294.00" width="22.00" height="12.00" rx="0" fill="#f4f4f4" stroke="none" stroke-width="1.0"/><rect x="290.00" y="281.00" width="22.00" height="12.00" rx="0" fill="#f4f4f4" stroke="none" stroke-width="1.0"/><rect x="290.00" y="268.00" width="22.00" height="12.00" rx="0" fill="#f4f4f4" stroke="none" stroke-width="1.0"/><rect x="290.00" y="255.00" width="22.00" height="12.00" rx="0" fill="#f4f4f4" stroke="none" stroke-width="1.0"/><rect x="290.00" y="242.00" width="22.00" height="12.00" rx="0" fill="#f4f4f4" stroke="none" stroke-width="1.0"/><rect x="290.00" y="229.00" width="22.00" height="12.00" rx="0" fill="#f4f4f4" stroke="none" stroke-width="1.0"/><rect x="290.00" y="216.00" width="22.00" height="12.00" rx="0" fill="#f4f4f4" stroke="none" stroke-width="1.0"/><rect x="290.00" y="203.00" width="22.00" height="12.00" rx="0" fill="#f4f4f4" stroke="none" stroke-width="1.0"/><rect x="290.00" y="190.00" width="22.00" height="12.00" rx="0" fill="#f4f4f4" stroke="none" stroke-width="1.0"/><rect x="290.00" y="177.00" width="22.00" height="12.00" rx="0" fill="#f4f4f4" stroke="none" stroke-width="1.0"/><rect x="290.00" y="164.00" width="22.00" height="12.00" rx="0" fill="#f4f4f4" stroke="none" stroke-width="1.0"/><rect x="290.00" y="151.00" width="22.00" height="12.00" rx="0" fill="#f4f4f4" stroke="none" stroke-width="1.0"/><rect x="290.00" y="138.00" width="22.00" height="12.00" rx="0" fill="#f4f4f4" stroke="none" stroke-width="1.0"/><rect x="290.00" y="125.00" width="22.00" height="12.00" rx="0" fill="#f4f4f4" stroke="none" stroke-width="1.0"/><rect x="290.00" y="112.00" width="22.00" height="12.00" rx="0" fill="#f4f4f4" stroke="none" stroke-width="1.0"/><text x="301.00" y="336.00" font-size="11.5" fill="#1c1c1c" text-anchor="middle" font-weight="700" font-family="'Helvetica Neue', Helvetica, Arial, sans-serif">1</text><rect x="316.00" y="307.00" width="22.00" height="12.00" rx="0" fill="#f4f4f4" stroke="none" stroke-width="1.0"/><rect x="316.00" y="294.00" width="22.00" height="12.00" rx="0" fill="#f4f4f4" stroke="none" stroke-width="1.0"/><rect x="316.00" y="281.00" width="22.00" height="12.00" rx="0" fill="#f4f4f4" stroke="none" stroke-width="1.0"/><rect x="316.00" y="268.00" width="22.00" height="12.00" rx="0" fill="#f4f4f4" stroke="none" stroke-width="1.0"/><rect x="316.00" y="255.00" width="22.00" height="12.00" rx="0" fill="#f4f4f4" stroke="none" stroke-width="1.0"/><rect x="316.00" y="242.00" width="22.00" height="12.00" rx="0" fill="#f4f4f4" stroke="none" stroke-width="1.0"/><rect x="316.00" y="229.00" width="22.00" height="12.00" rx="0" fill="#f4f4f4" stroke="none" stroke-width="1.0"/><rect x="316.00" y="216.00" width="22.00" height="12.00" rx="0" fill="#f4f4f4" stroke="none" stroke-width="1.0"/><rect x="316.00" y="203.00" width="22.00" height="12.00" rx="0" fill="#f4f4f4" stroke="none" stroke-width="1.0"/><rect x="316.00" y="190.00" width="22.00" height="12.00" rx="0" fill="#f4f4f4" stroke="none" stroke-width="1.0"/><rect x="316.00" y="177.00" width="22.00" height="12.00" rx="0" fill="#f4f4f4" stroke="none" stroke-width="1.0"/><rect x="316.00" y="164.00" width="22.00" height="12.00" rx="0" fill="#f4f4f4" stroke="none" stroke-width="1.0"/><rect x="316.00" y="151.00" width="22.00" height="12.00" rx="0" fill="#f4f4f4" stroke="none" stroke-width="1.0"/><rect x="316.00" y="138.00" width="22.00" height="12.00" rx="0" fill="#f4f4f4" stroke="none" stroke-width="1.0"/><rect x="316.00" y="125.00" width="22.00" height="12.00" rx="0" fill="#f4f4f4" stroke="none" stroke-width="1.0"/><rect x="316.00" y="112.00" width="22.00" height="12.00" rx="0" fill="#f4f4f4" stroke="none" stroke-width="1.0"/><text x="327.00" y="336.00" font-size="11.5" fill="#6a6a6a" text-anchor="middle" font-family="'Helvetica Neue', Helvetica, Arial, sans-serif">2</text><rect x="342.00" y="307.00" width="22.00" height="12.00" rx="0" fill="#f4f4f4" stroke="none" stroke-width="1.0"/><rect x="342.00" y="294.00" width="22.00" height="12.00" rx="0" fill="#f4f4f4" stroke="none" stroke-width="1.0"/><rect x="342.00" y="281.00" width="22.00" height="12.00" rx="0" fill="#f4f4f4" stroke="none" stroke-width="1.0"/><rect x="342.00" y="268.00" width="22.00" height="12.00" rx="0" fill="#f4f4f4" stroke="none" stroke-width="1.0"/><rect x="342.00" y="255.00" width="22.00" height="12.00" rx="0" fill="#f4f4f4" stroke="none" stroke-width="1.0"/><rect x="342.00" y="242.00" width="22.00" height="12.00" rx="0" fill="#f4f4f4" stroke="none" stroke-width="1.0"/><rect x="342.00" y="229.00" width="22.00" height="12.00" rx="0" fill="#f4f4f4" stroke="none" stroke-width="1.0"/><rect x="342.00" y="216.00" width="22.00" height="12.00" rx="0" fill="#f4f4f4" stroke="none" stroke-width="1.0"/><rect x="342.00" y="203.00" width="22.00" height="12.00" rx="0" fill="#f4f4f4" stroke="none" stroke-width="1.0"/><rect x="342.00" y="190.00" width="22.00" height="12.00" rx="0" fill="#f4f4f4" stroke="none" stroke-width="1.0"/><rect x="342.00" y="177.00" width="22.00" height="12.00" rx="0" fill="#f4f4f4" stroke="none" stroke-width="1.0"/><rect x="342.00" y="164.00" width="22.00" height="12.00" rx="0" fill="#f4f4f4" stroke="none" stroke-width="1.0"/><rect x="342.00" y="151.00" width="22.00" height="12.00" rx="0" fill="#f4f4f4" stroke="none" stroke-width="1.0"/><rect x="342.00" y="138.00" width="22.00" height="12.00" rx="0" fill="#f4f4f4" stroke="none" stroke-width="1.0"/><rect x="342.00" y="125.00" width="22.00" height="12.00" rx="0" fill="#f4f4f4" stroke="none" stroke-width="1.0"/><rect x="342.00" y="112.00" width="22.00" height="12.00" rx="0" fill="#f4f4f4" stroke="none" stroke-width="1.0"/><text x="353.00" y="336.00" font-size="11.5" fill="#6a6a6a" text-anchor="middle" font-family="'Helvetica Neue', Helvetica, Arial, sans-serif">3</text><rect x="368.00" y="307.00" width="22.00" height="12.00" rx="0" fill="#f4f4f4" stroke="none" stroke-width="1.0"/><rect x="368.00" y="294.00" width="22.00" height="12.00" rx="0" fill="#f4f4f4" stroke="none" stroke-width="1.0"/><rect x="368.00" y="281.00" width="22.00" height="12.00" rx="0" fill="#f4f4f4" stroke="none" stroke-width="1.0"/><rect x="368.00" y="268.00" width="22.00" height="12.00" rx="0" fill="#f4f4f4" stroke="none" stroke-width="1.0"/><rect x="368.00" y="255.00" width="22.00" height="12.00" rx="0" fill="#f4f4f4" stroke="none" stroke-width="1.0"/><rect x="368.00" y="242.00" width="22.00" height="12.00" rx="0" fill="#f4f4f4" stroke="none" stroke-width="1.0"/><rect x="368.00" y="229.00" width="22.00" height="12.00" rx="0" fill="#f4f4f4" stroke="none" stroke-width="1.0"/><rect x="368.00" y="216.00" width="22.00" height="12.00" rx="0" fill="#f4f4f4" stroke="none" stroke-width="1.0"/><rect x="368.00" y="203.00" width="22.00" height="12.00" rx="0" fill="#f4f4f4" stroke="none" stroke-width="1.0"/><rect x="368.00" y="190.00" width="22.00" height="12.00" rx="0" fill="#f4f4f4" stroke="none" stroke-width="1.0"/><rect x="368.00" y="177.00" width="22.00" height="12.00" rx="0" fill="#f4f4f4" stroke="none" stroke-width="1.0"/><rect x="368.00" y="164.00" width="22.00" height="12.00" rx="0" fill="#f4f4f4" stroke="none" stroke-width="1.0"/><rect x="368.00" y="151.00" width="22.00" height="12.00" rx="0" fill="#f4f4f4" stroke="none" stroke-width="1.0"/><rect x="368.00" y="138.00" width="22.00" height="12.00" rx="0" fill="#f4f4f4" stroke="none" stroke-width="1.0"/><rect x="368.00" y="125.00" width="22.00" height="12.00" rx="0" fill="#f4f4f4" stroke="none" stroke-width="1.0"/><rect x="368.00" y="112.00" width="22.00" height="12.00" rx="0" fill="#f4f4f4" stroke="none" stroke-width="1.0"/><text x="379.00" y="336.00" font-size="11.5" fill="#6a6a6a" text-anchor="middle" font-family="'Helvetica Neue', Helvetica, Arial, sans-serif">4</text><rect x="394.00" y="307.00" width="22.00" height="12.00" rx="0" fill="#f4f4f4" stroke="none" stroke-width="1.0"/><rect x="394.00" y="294.00" width="22.00" height="12.00" rx="0" fill="#f4f4f4" stroke="none" stroke-width="1.0"/><rect x="394.00" y="281.00" width="22.00" height="12.00" rx="0" fill="#f4f4f4" stroke="none" stroke-width="1.0"/><rect x="394.00" y="268.00" width="22.00" height="12.00" rx="0" fill="#f4f4f4" stroke="none" stroke-width="1.0"/><rect x="394.00" y="255.00" width="22.00" height="12.00" rx="0" fill="#f4f4f4" stroke="none" stroke-width="1.0"/><rect x="394.00" y="242.00" width="22.00" height="12.00" rx="0" fill="#f4f4f4" stroke="none" stroke-width="1.0"/><rect x="394.00" y="229.00" width="22.00" height="12.00" rx="0" fill="#f4f4f4" stroke="none" stroke-width="1.0"/><rect x="394.00" y="216.00" width="22.00" height="12.00" rx="0" fill="#f4f4f4" stroke="none" stroke-width="1.0"/><rect x="394.00" y="203.00" width="22.00" height="12.00" rx="0" fill="#f4f4f4" stroke="none" stroke-width="1.0"/><rect x="394.00" y="190.00" width="22.00" height="12.00" rx="0" fill="#f4f4f4" stroke="none" stroke-width="1.0"/><rect x="394.00" y="177.00" width="22.00" height="12.00" rx="0" fill="#f4f4f4" stroke="none" stroke-width="1.0"/><rect x="394.00" y="164.00" width="22.00" height="12.00" rx="0" fill="#f4f4f4" stroke="none" stroke-width="1.0"/><rect x="394.00" y="151.00" width="22.00" height="12.00" rx="0" fill="#f4f4f4" stroke="none" stroke-width="1.0"/><rect x="394.00" y="138.00" width="22.00" height="12.00" rx="0" fill="#f4f4f4" stroke="none" stroke-width="1.0"/><rect x="394.00" y="125.00" width="22.00" height="12.00" rx="0" fill="#f4f4f4" stroke="none" stroke-width="1.0"/><rect x="394.00" y="112.00" width="22.00" height="12.00" rx="0" fill="#f4f4f4" stroke="none" stroke-width="1.0"/><text x="405.00" y="336.00" font-size="11.5" fill="#6a6a6a" text-anchor="middle" font-family="'Helvetica Neue', Helvetica, Arial, sans-serif">5</text><rect x="420.00" y="307.00" width="22.00" height="12.00" rx="0" fill="#f4f4f4" stroke="none" stroke-width="1.0"/><rect x="420.00" y="294.00" width="22.00" height="12.00" rx="0" fill="#f4f4f4" stroke="none" stroke-width="1.0"/><rect x="420.00" y="281.00" width="22.00" height="12.00" rx="0" fill="#f4f4f4" stroke="none" stroke-width="1.0"/><rect x="420.00" y="268.00" width="22.00" height="12.00" rx="0" fill="#f4f4f4" stroke="none" stroke-width="1.0"/><rect x="420.00" y="255.00" width="22.00" height="12.00" rx="0" fill="#f4f4f4" stroke="none" stroke-width="1.0"/><rect x="420.00" y="242.00" width="22.00" height="12.00" rx="0" fill="#f4f4f4" stroke="none" stroke-width="1.0"/><rect x="420.00" y="229.00" width="22.00" height="12.00" rx="0" fill="#f4f4f4" stroke="none" stroke-width="1.0"/><rect x="420.00" y="216.00" width="22.00" height="12.00" rx="0" fill="#f4f4f4" stroke="none" stroke-width="1.0"/><rect x="420.00" y="203.00" width="22.00" height="12.00" rx="0" fill="#f4f4f4" stroke="none" stroke-width="1.0"/><rect x="420.00" y="190.00" width="22.00" height="12.00" rx="0" fill="#f4f4f4" stroke="none" stroke-width="1.0"/><rect x="420.00" y="177.00" width="22.00" height="12.00" rx="0" fill="#f4f4f4" stroke="none" stroke-width="1.0"/><rect x="420.00" y="164.00" width="22.00" height="12.00" rx="0" fill="#f4f4f4" stroke="none" stroke-width="1.0"/><rect x="420.00" y="151.00" width="22.00" height="12.00" rx="0" fill="#f4f4f4" stroke="none" stroke-width="1.0"/><rect x="420.00" y="138.00" width="22.00" height="12.00" rx="0" fill="#f4f4f4" stroke="none" stroke-width="1.0"/><rect x="420.00" y="125.00" width="22.00" height="12.00" rx="0" fill="#f4f4f4" stroke="none" stroke-width="1.0"/><rect x="420.00" y="112.00" width="22.00" height="12.00" rx="0" fill="#f4f4f4" stroke="none" stroke-width="1.0"/><text x="431.00" y="336.00" font-size="11.5" fill="#6a6a6a" text-anchor="middle" font-family="'Helvetica Neue', Helvetica, Arial, sans-serif">6</text><rect x="446.00" y="307.00" width="22.00" height="12.00" rx="0" fill="#f4f4f4" stroke="none" stroke-width="1.0"/><rect x="446.00" y="294.00" width="22.00" height="12.00" rx="0" fill="#f4f4f4" stroke="none" stroke-width="1.0"/><rect x="446.00" y="281.00" width="22.00" height="12.00" rx="0" fill="#f4f4f4" stroke="none" stroke-width="1.0"/><rect x="446.00" y="268.00" width="22.00" height="12.00" rx="0" fill="#f4f4f4" stroke="none" stroke-width="1.0"/><rect x="446.00" y="255.00" width="22.00" height="12.00" rx="0" fill="#f4f4f4" stroke="none" stroke-width="1.0"/><rect x="446.00" y="242.00" width="22.00" height="12.00" rx="0" fill="#f4f4f4" stroke="none" stroke-width="1.0"/><rect x="446.00" y="229.00" width="22.00" height="12.00" rx="0" fill="#f4f4f4" stroke="none" stroke-width="1.0"/><rect x="446.00" y="216.00" width="22.00" height="12.00" rx="0" fill="#f4f4f4" stroke="none" stroke-width="1.0"/><rect x="446.00" y="203.00" width="22.00" height="12.00" rx="0" fill="#f4f4f4" stroke="none" stroke-width="1.0"/><rect x="446.00" y="190.00" width="22.00" height="12.00" rx="0" fill="#f4f4f4" stroke="none" stroke-width="1.0"/><rect x="446.00" y="177.00" width="22.00" height="12.00" rx="0" fill="#f4f4f4" stroke="none" stroke-width="1.0"/><rect x="446.00" y="164.00" width="22.00" height="12.00" rx="0" fill="#f4f4f4" stroke="none" stroke-width="1.0"/><rect x="446.00" y="151.00" width="22.00" height="12.00" rx="0" fill="#f4f4f4" stroke="none" stroke-width="1.0"/><rect x="446.00" y="138.00" width="22.00" height="12.00" rx="0" fill="#f4f4f4" stroke="none" stroke-width="1.0"/><rect x="446.00" y="125.00" width="22.00" height="12.00" rx="0" fill="#f4f4f4" stroke="none" stroke-width="1.0"/><rect x="446.00" y="112.00" width="22.00" height="12.00" rx="0" fill="#f4f4f4" stroke="none" stroke-width="1.0"/><text x="457.00" y="336.00" font-size="11.5" fill="#6a6a6a" text-anchor="middle" font-family="'Helvetica Neue', Helvetica, Arial, sans-serif">7</text><rect x="472.00" y="307.00" width="22.00" height="12.00" rx="0" fill="#f4f4f4" stroke="none" stroke-width="1.0"/><rect x="472.00" y="294.00" width="22.00" height="12.00" rx="0" fill="#f4f4f4" stroke="none" stroke-width="1.0"/><rect x="472.00" y="281.00" width="22.00" height="12.00" rx="0" fill="#f4f4f4" stroke="none" stroke-width="1.0"/><rect x="472.00" y="268.00" width="22.00" height="12.00" rx="0" fill="#f4f4f4" stroke="none" stroke-width="1.0"/><rect x="472.00" y="255.00" width="22.00" height="12.00" rx="0" fill="#f4f4f4" stroke="none" stroke-width="1.0"/><rect x="472.00" y="242.00" width="22.00" height="12.00" rx="0" fill="#f4f4f4" stroke="none" stroke-width="1.0"/><rect x="472.00" y="229.00" width="22.00" height="12.00" rx="0" fill="#f4f4f4" stroke="none" stroke-width="1.0"/><rect x="472.00" y="216.00" width="22.00" height="12.00" rx="0" fill="#f4f4f4" stroke="none" stroke-width="1.0"/><rect x="472.00" y="203.00" width="22.00" height="12.00" rx="0" fill="#f4f4f4" stroke="none" stroke-width="1.0"/><rect x="472.00" y="190.00" width="22.00" height="12.00" rx="0" fill="#f4f4f4" stroke="none" stroke-width="1.0"/><rect x="472.00" y="177.00" width="22.00" height="12.00" rx="0" fill="#f4f4f4" stroke="none" stroke-width="1.0"/><rect x="472.00" y="164.00" width="22.00" height="12.00" rx="0" fill="#f4f4f4" stroke="none" stroke-width="1.0"/><rect x="472.00" y="151.00" width="22.00" height="12.00" rx="0" fill="#f4f4f4" stroke="none" stroke-width="1.0"/><rect x="472.00" y="138.00" width="22.00" height="12.00" rx="0" fill="#f4f4f4" stroke="none" stroke-width="1.0"/><rect x="472.00" y="125.00" width="22.00" height="12.00" rx="0" fill="#f4f4f4" stroke="none" stroke-width="1.0"/><rect x="472.00" y="112.00" width="22.00" height="12.00" rx="0" fill="#f4f4f4" stroke="none" stroke-width="1.0"/><text x="483.00" y="336.00" font-size="11.5" fill="#6a6a6a" text-anchor="middle" font-family="'Helvetica Neue', Helvetica, Arial, sans-serif">8</text><rect x="498.00" y="307.00" width="22.00" height="12.00" rx="0" fill="#f4f4f4" stroke="none" stroke-width="1.0"/><rect x="498.00" y="294.00" width="22.00" height="12.00" rx="0" fill="#f4f4f4" stroke="none" stroke-width="1.0"/><rect x="498.00" y="281.00" width="22.00" height="12.00" rx="0" fill="#f4f4f4" stroke="none" stroke-width="1.0"/><rect x="498.00" y="268.00" width="22.00" height="12.00" rx="0" fill="#f4f4f4" stroke="none" stroke-width="1.0"/><rect x="498.00" y="255.00" width="22.00" height="12.00" rx="0" fill="#f4f4f4" stroke="none" stroke-width="1.0"/><rect x="498.00" y="242.00" width="22.00" height="12.00" rx="0" fill="#f4f4f4" stroke="none" stroke-width="1.0"/><rect x="498.00" y="229.00" width="22.00" height="12.00" rx="0" fill="#f4f4f4" stroke="none" stroke-width="1.0"/><rect x="498.00" y="216.00" width="22.00" height="12.00" rx="0" fill="#f4f4f4" stroke="none" stroke-width="1.0"/><rect x="498.00" y="203.00" width="22.00" height="12.00" rx="0" fill="#f4f4f4" stroke="none" stroke-width="1.0"/><rect x="498.00" y="190.00" width="22.00" height="12.00" rx="0" fill="#f4f4f4" stroke="none" stroke-width="1.0"/><rect x="498.00" y="177.00" width="22.00" height="12.00" rx="0" fill="#f4f4f4" stroke="none" stroke-width="1.0"/><rect x="498.00" y="164.00" width="22.00" height="12.00" rx="0" fill="#f4f4f4" stroke="none" stroke-width="1.0"/><rect x="498.00" y="151.00" width="22.00" height="12.00" rx="0" fill="#f4f4f4" stroke="none" stroke-width="1.0"/><rect x="498.00" y="138.00" width="22.00" height="12.00" rx="0" fill="#f4f4f4" stroke="none" stroke-width="1.0"/><rect x="498.00" y="125.00" width="22.00" height="12.00" rx="0" fill="#f4f4f4" stroke="none" stroke-width="1.0"/><rect x="498.00" y="112.00" width="22.00" height="12.00" rx="0" fill="#f4f4f4" stroke="none" stroke-width="1.0"/><text x="509.00" y="336.00" font-size="11.5" fill="#6a6a6a" text-anchor="middle" font-family="'Helvetica Neue', Helvetica, Arial, sans-serif">9</text><rect x="524.00" y="307.00" width="22.00" height="12.00" rx="0" fill="#f4f4f4" stroke="none" stroke-width="1.0"/><rect x="524.00" y="294.00" width="22.00" height="12.00" rx="0" fill="#f4f4f4" stroke="none" stroke-width="1.0"/><rect x="524.00" y="281.00" width="22.00" height="12.00" rx="0" fill="#f4f4f4" stroke="none" stroke-width="1.0"/><rect x="524.00" y="268.00" width="22.00" height="12.00" rx="0" fill="#f4f4f4" stroke="none" stroke-width="1.0"/><rect x="524.00" y="255.00" width="22.00" height="12.00" rx="0" fill="#f4f4f4" stroke="none" stroke-width="1.0"/><rect x="524.00" y="242.00" width="22.00" height="12.00" rx="0" fill="#f4f4f4" stroke="none" stroke-width="1.0"/><rect x="524.00" y="229.00" width="22.00" height="12.00" rx="0" fill="#f4f4f4" stroke="none" stroke-width="1.0"/><rect x="524.00" y="216.00" width="22.00" height="12.00" rx="0" fill="#f4f4f4" stroke="none" stroke-width="1.0"/><rect x="524.00" y="203.00" width="22.00" height="12.00" rx="0" fill="#f4f4f4" stroke="none" stroke-width="1.0"/><rect x="524.00" y="190.00" width="22.00" height="12.00" rx="0" fill="#f4f4f4" stroke="none" stroke-width="1.0"/><rect x="524.00" y="177.00" width="22.00" height="12.00" rx="0" fill="#f4f4f4" stroke="none" stroke-width="1.0"/><rect x="524.00" y="164.00" width="22.00" height="12.00" rx="0" fill="#f4f4f4" stroke="none" stroke-width="1.0"/><rect x="524.00" y="151.00" width="22.00" height="12.00" rx="0" fill="#f4f4f4" stroke="none" stroke-width="1.0"/><rect x="524.00" y="138.00" width="22.00" height="12.00" rx="0" fill="#f4f4f4" stroke="none" stroke-width="1.0"/><rect x="524.00" y="125.00" width="22.00" height="12.00" rx="0" fill="#f4f4f4" stroke="none" stroke-width="1.0"/><rect x="524.00" y="112.00" width="22.00" height="12.00" rx="0" fill="#f4f4f4" stroke="none" stroke-width="1.0"/><text x="535.00" y="336.00" font-size="11.5" fill="#6a6a6a" text-anchor="middle" font-family="'Helvetica Neue', Helvetica, Arial, sans-serif">10</text><text x="418.00" y="82.00" font-size="12.5" fill="#1c1c1c" text-anchor="middle" font-weight="700" font-family="'Helvetica Neue', Helvetica, Arial, sans-serif">Action expert</text><text x="418.00" y="97.00" font-size="11.5" fill="#6a6a6a" text-anchor="middle" font-family="'Helvetica Neue', Helvetica, Arial, sans-serif">16 layers, 720 numbers per token</text><text x="280.00" y="122.00" font-size="11" fill="#6a6a6a" text-anchor="end" font-family="'Helvetica Neue', Helvetica, Arial, sans-serif">layer 16</text><text x="280.00" y="317.00" font-size="11" fill="#6a6a6a" text-anchor="end" font-family="'Helvetica Neue', Helvetica, Arial, sans-serif">layer 1</text><line x1="290.00" y1="348.00" x2="546.00" y2="348.00" stroke="#b9b9b9" stroke-width="1.1" stroke-linecap="butt" marker-end="url(#ah-muted)"/><text x="290.00" y="364.00" font-size="11.5" fill="#6a6a6a" text-anchor="start" font-family="'Helvetica Neue', Helvetica, Arial, sans-serif">random noise</text><text x="546.00" y="364.00" font-size="11.5" fill="#6a6a6a" text-anchor="end" font-family="'Helvetica Neue', Helvetica, Arial, sans-serif">planned movements</text><line x1="192.00" y1="196.00" x2="284.00" y2="196.00" stroke="#1c1c1c" stroke-width="1.2" stroke-linecap="butt" marker-end="url(#ah-ink)"/><text x="238.00" y="186.00" font-size="11.5" fill="#6a6a6a" text-anchor="middle" font-family="'Helvetica Neue', Helvetica, Arial, sans-serif">context</text><text x="238.00" y="216.00" font-size="11.5" fill="#6a6a6a" text-anchor="middle" font-family="'Helvetica Neue', Helvetica, Arial, sans-serif">read at every step</text><line x1="550.00" y1="118.00" x2="568.00" y2="118.00" stroke="#1c1c1c" stroke-width="1.2" stroke-linecap="butt" marker-end="url(#ah-ink)"/><text x="573.00" y="122.00" font-size="12" fill="#1c1c1c" text-anchor="start" font-family="'Helvetica Neue', Helvetica, Arial, sans-serif">50 planned</text><text x="573.00" y="137.00" font-size="12" fill="#1c1c1c" text-anchor="start" font-family="'Helvetica Neue', Helvetica, Arial, sans-serif">movements;</text><text x="573.00" y="152.00" font-size="12" fill="#1c1c1c" text-anchor="start" font-family="'Helvetica Neue', Helvetica, Arial, sans-serif">the first one</text><text x="573.00" y="167.00" font-size="12" fill="#1c1c1c" text-anchor="start" font-family="'Helvetica Neue', Helvetica, Arial, sans-serif">is carried out</text><line x1="422.00" y1="267.50" x2="440.00" y2="267.50" stroke="#8f8f8f" stroke-width="2.2" stroke-linecap="round"/><line x1="292.00" y1="163.50" x2="310.00" y2="163.50" stroke="#8f8f8f" stroke-width="2.2" stroke-linecap="round"/><line x1="422.00" y1="163.50" x2="440.00" y2="163.50" stroke="#8f8f8f" stroke-width="2.2" stroke-linecap="round"/><line x1="134.00" y1="163.50" x2="184.00" y2="163.50" stroke="#8f8f8f" stroke-width="2.2" stroke-linecap="round"/><line x1="289.00" y1="266.10" x2="313.00" y2="266.10" stroke="#2f6db3" stroke-width="2.6" stroke-linecap="butt"/><line x1="289.00" y1="268.90" x2="313.00" y2="268.90" stroke="#d4582b" stroke-width="2.6" stroke-linecap="butt"/><path d="M288,267.5 L286,267.5 L286,397 L294,397" stroke="#b9b9b9" stroke-width="1" fill="none" stroke-linecap="round" stroke-linejoin="round"/><text x="298.00" y="401.00" font-size="12.5" text-anchor="start" font-family="'Helvetica Neue', Helvetica, Arial, sans-serif" xml:space="preserve"><tspan fill="#2f6db3" font-weight="700">probe reads</tspan><tspan fill="#6a6a6a"> and </tspan><tspan fill="#d4582b" font-weight="700">edit writes</tspan><tspan fill="#6a6a6a"> here</tspan></text><text x="298.00" y="417.00" font-size="11.5" fill="#6a6a6a" text-anchor="start" font-family="'Helvetica Neue', Helvetica, Arial, sans-serif">after layer 4 of 16, refinement step 1,</text><text x="298.00" y="432.00" font-size="11.5" fill="#6a6a6a" text-anchor="start" font-family="'Helvetica Neue', Helvetica, Arial, sans-serif">averaged over the 50 movement tokens</text><line x1="26.00" y1="397.00" x2="40.00" y2="397.00" stroke="#8f8f8f" stroke-width="2.2" stroke-linecap="round"/><text x="46.00" y="401.00" font-size="11.5" fill="#6a6a6a" text-anchor="start" font-family="'Helvetica Neue', Helvetica, Arial, sans-serif">other places I measured;</text><text x="46.00" y="416.00" font-size="11.5" fill="#6a6a6a" text-anchor="start" font-family="'Helvetica Neue', Helvetica, Arial, sans-serif">a rule fixed in advance</text><text x="46.00" y="431.00" font-size="11.5" fill="#6a6a6a" text-anchor="start" font-family="'Helvetica Neue', Helvetica, Arial, sans-serif">picked the coloured one</text></svg>